<?xml version="1.0"?>
<svg xmlns="http://www.w3.org/2000/svg" xmlns:xlink="http://www.w3.org/1999/xlink" version="1.1" id="Layer_1" x="0px" y="0px" viewBox="0 0 508 508" style="enable-background:new 0 0 508 508;" xml:space="preserve" width="512px" height="512px" class=""><g><link xmlns="" type="text/css" id="dark-mode" rel="stylesheet" href=""/><style xmlns="" type="text/css" id="dark-mode-custom-style"/><circle style="fill:#12F23599" cx="254" cy="254" r="254" data-original="#84DBFF" class="active-path" data-old_color="#84DBFF"/><path style="fill:#17FF42" d="M372,190c0-1.2,0.4-2.8,0.4-4.4c0-29.6-24-53.6-53.6-53.6c-12.8,0-24.4,4.4-33.6,12  c-13.6-26-40.8-44-72-44c-44.8,0-80.8,36-80.8,80.8c0,3.2,0,6,0.4,9.2c-33.2,3.2-59.2,31.2-59.2,65.2c0,36,29.2,65.6,65.6,65.6  h229.6c36,0,65.6-29.2,65.6-65.6C434.4,220,406.8,191.6,372,190z" data-original="#FFFFFF" class="" data-old_color="#FFFFFF"/><g>
	<polygon style="fill:#FFFFFF" points="324,294 281.2,294 281.2,364.8 219.2,364.8 219.2,294 176.4,294 250.4,210.4  " data-original="#324A5E" class="" data-old_color="#324A5E"/>
	<rect x="219.2" y="376.4" style="fill:#FFFFFF" width="62" height="9.2" data-original="#324A5E" class="" data-old_color="#324A5E"/>
	<rect x="219.2" y="398.8" style="fill:#FFFFFF" width="62" height="9.2" data-original="#324A5E" class="" data-old_color="#324A5E"/>
</g></g> </svg>
